<?xml version="1.0" standalone="no"?>
<!DOCTYPE svg PUBLIC "-//W3C//DTD SVG 20010904//EN"
 "http://www.w3.org/TR/2001/REC-SVG-20010904/DTD/svg10.dtd">
<svg version="1.0" xmlns="http://www.w3.org/2000/svg"
 width="360.000000pt" height="360.000000pt" viewBox="0 0 360.000000 360.000000"
 preserveAspectRatio="xMidYMid meet">
<metadata>
Created by potrace 1.14, written by Peter Selinger 2001-2017
</metadata>
<g transform="translate(0.000000,360.000000) scale(0.100000,-0.100000)"
fill="#000000" stroke="none">
<path d="M990 2380 c-165 -8 -247 -29 -322 -82 -94 -67 -132 -143 -132 -268 0
-135 51 -222 163 -280 92 -46 132 -50 536 -50 227 0 394 -4 415 -10 30 -9 49
-32 145 -172 177 -261 219 -297 348 -298 127 0 161 30 367 320 406 571 589
834 586 838 -3 2 -96 4 -207 3 l-203 0 -105 -148 c-57 -81 -182 -257 -277
-391 l-172 -243 -77 110 c-145 211 -149 211 -723 220 -404 6 -424 7 -438 25
-8 11 -14 37 -14 58 0 66 21 73 254 76 110 1 202 4 204 6 2 2 -42 70 -98 150
-56 80 -103 145 -103 144 -1 -1 -67 -4 -147 -8z"/>
<path d="M1202 2378 c2 -4 65 -98 141 -208 l138 -200 102 0 c115 0 216 -13
279 -34 23 -9 43 -14 44 -13 1 1 -69 103 -155 227 l-157 225 -197 5 c-108 3
-196 2 -195 -2z"/>
<path d="M1670 1548 c-32 -17 -71 -18 -492 -18 l-457 0 -106 -136 c-58 -74
-109 -142 -112 -150 -4 -12 68 -14 528 -14 294 0 577 5 629 10 90 10 214 42
225 60 4 6 -153 242 -174 261 -3 3 -22 -3 -41 -13z"/>
</g>
</svg>
